<?xml version="1.0" encoding="utf-8"?>
<!-- Generator: Adobe Illustrator 27.1.1, SVG Export Plug-In . SVG Version: 6.00 Build 0)  -->
<svg version="1.1" id="Layer_1" xmlns="http://www.w3.org/2000/svg" xmlns:xlink="http://www.w3.org/1999/xlink" x="0px" y="0px"
	 viewBox="0 0 997.4 212.4" style="enable-background:new 0 0 997.4 212.4;" xml:space="preserve">
<style type="text/css">
	.st0{fill:#2B3990;}
	.st1{fill:none;}
	.st2{font-family:'Superclarendon-Regular';}
	.st3{font-size:103.7225px;}
	.st4{letter-spacing:8.7;}
	.st5{letter-spacing:5.2;}
	.st6{letter-spacing:2.6;}
	.st7{letter-spacing:15.7;}
	.st8{font-size:53.5942px;}
	.st9{letter-spacing:0.9;}
	.st10{letter-spacing:1.8;}
	.st11{letter-spacing:-7.2;}
	.st12{font-size:20.8422px;}
	.st13{letter-spacing:4.5;}
	.st14{font-size:24px;}
</style>
<g>
	<g>
		<rect x="208.7" y="58.6" class="st0" width="0.3" height="8"/>
		<g>
			<g>
				<path class="st0" d="M133.7,88.9l0.1-8.7c0,0,0.1,0,0.1,0c0,0,0,0-0.1,0c0-4.8,0.1-9.5,0.1-14.3c2.5,0,5,0,7.5,0l0,7.6
					c-0.3,0-0.5,0-0.8,0c0.3,0,0.5,0,0.8,0l0,7.6c0.3,0,0.6,0,0.9,0l0,0c0,0,0,0,0,0s0,0,0,0l21.6,0.1l0,7.6c0,3.9,2.8,7.1,6.5,7.6
					c0,0,0,0,0,0.1l1.1,0l0,0c4.1-0.1,7.4-3.4,7.4-7.6l0-7.6l22.6,0.1l0.1-15.3l7.5,0l-0.1,22.9l-22.6-0.1c0,2.8-0.8,5.4-2.1,7.6
					c-1.3,2.3-3.2,4.2-5.5,5.6c-2.2,1.3-4.7,2-7.3,2c-0.1,0-0.1,0-0.2,0c-1.3,0-2.6-0.2-3.8-0.5l0,0c-1.3-0.4-2.6-0.9-3.8-1.6
					c-1-0.6-2-1.3-2.8-2.2c-1-1-1.9-2.2-2.7-3.5c-1.3-2.2-2-4.9-2-7.6L133.7,88.9z"/>
				<path class="st0" d="M133.6,12.8l8.5,0c0,0,0,0.1,0,0.1c0,0,0,0,0-0.1c4.7,0,9.4,0,14.1-0.1c0,2.5,0,5.1,0,7.6l-7.5,0
					c0-0.3,0-0.5,0-0.8c0,0.3,0,0.5,0,0.8l-7.5,0c0,0.3,0,0.6,0,1l0,0c0,0,0,0,0,0s0,0,0,0l0.1,21.9l-7.5,0c-3.8,0-7,3-7.4,6.7
					c0,0,0,0-0.1,0v1.2l0,0c0.1,4.1,3.5,7.4,7.5,7.4l7.5,0l0.1,22.9l15-0.1l0,7.6l-22.6,0.1l-0.1-22.9c-2.7,0-5.3-0.7-7.5-2
					c-2.3-1.3-4.2-3.3-5.5-5.6c-1.3-2.2-2-4.7-2-7.4c0-0.1,0-0.1,0-0.2c0-1.3,0.2-2.6,0.5-3.8l0,0c0.3-1.4,0.8-2.6,1.5-3.8
					c0.6-1,1.3-2,2.1-2.9c1-1.1,2.1-2,3.4-2.7c2.2-1.3,4.8-2.1,7.5-2.1L133.6,12.8z"/>
				<rect x="163.8" y="12.8" class="st0" width="22.6" height="7.6"/>
				<rect x="154.4" y="12.8" class="st0" width="22.6" height="7.6"/>
				<path class="st0" d="M208.9,12.8v8.6c0,0-0.1,0-0.1,0c0,0,0,0,0.1,0c0,7.3,0,14.6,0,21.9c-2.5,0-5,0-7.5,0c-0.1,0-0.1,0-0.2,0
					l0,0c-4.1,0-7.5,3.4-7.5,7.6s3.4,7.6,7.5,7.6h7.5v30.5h-22.6v-7.6h15V66.2c-2.7,0-5.3-0.7-7.5-2c-2.3-1.3-4.2-3.3-5.5-5.6
					c-1.3-2.2-2-4.8-2-7.6s0.7-5.4,2-7.6c0.5-0.8,1-1.6,1.6-2.3c1.1-1.3,2.4-2.4,3.9-3.2c2.2-1.3,4.8-2,7.5-2h0.2v-7.6
					c0.3,0,0.5,0,0.8,0c-0.3,0-0.5,0-0.8,0v-7.6c-0.3,0-0.6,0-0.9,0l0,0c0,0,0,0,0,0s0,0,0,0h-14.1v-7.6L208.9,12.8L208.9,12.8z"/>
				<path class="st0" d="M192,66.2L192,66.2z"/>
			</g>
			<line class="st1" x1="134.7" y1="88.2" x2="134.7" y2="88.2"/>
			<rect x="133.7" y="88.2" class="st0" width="0.9" height="0.9"/>
			<rect x="178.9" y="81.5" class="st0" width="7.2" height="0.2"/>
			<rect x="141.1" y="58.6" class="st0" width="0.2" height="7.3"/>
		</g>
	</g>
	<rect x="141.1" y="20.1" class="st0" width="13.4" height="0.2"/>
	<rect x="148.6" y="19.9" class="st0" width="0" height="0.3"/>
	<rect x="141.1" y="21.3" class="st0" width="0" height="0.1"/>
	<rect x="156" y="12.7" class="st0" width="52.8" height="0.1"/>
	<rect x="141.1" y="20.3" class="st0" width="13.4" height="0.1"/>
</g>
<g>
	<path class="st0" d="M78.4,188.1l23.4,0l0,7.7c-7.8,0-15.6,0-23.4-0.1C78.4,193.2,78.4,190.7,78.4,188.1z"/>
	<rect x="49.7" y="188.1" class="st0" width="23.4" height="7.7"/>
	<path class="st0" d="M59.5,188.1c4.5,0,9.1,0,13.6,0c3.2,0,6.5,0,9.7,0.1c0,2.5,0,5.1,0,7.6H59.5V188.1z"/>
	<path class="st0" d="M26.3,195.8v-8.7c0,0,0.1,0,0.1,0c0,0,0,0-0.1,0c0-7.4,0-14.7,0-22.1c2.6,0,5.2,0,7.8,0c0.1,0,0.1,0,0.2,0l0,0
		c4.3,0,7.8-3.4,7.8-7.7s-3.5-7.7-7.8-7.7h-7.8V119h23.4v7.7H34.3V142c2.8,0,5.5,0.8,7.8,2.1c2.4,1.4,4.3,3.3,5.7,5.6
		c1.3,2.3,2.1,4.9,2.1,7.7s-0.8,5.4-2.1,7.7c-0.5,0.8-1.1,1.6-1.7,2.4c-1.1,1.3-2.5,2.4-4,3.3c-2.3,1.3-5,2.1-7.8,2.1h-0.2v7.7
		c-0.3,0-0.5,0-0.8,0c0.3,0,0.5,0,0.8,0v7.7c0.3,0,0.7,0,1,0c0,0,0,0,0,0s0,0,0,0h14.6v7.7L26.3,195.8L26.3,195.8z"/>
	<path class="st0" d="M43.9,142"/>
	<path class="st0" d="M96.4,195.9c0-2.8,0-5.6,0-8.4c0,0,0,0,0,0v-22.1h7.6c0.1,0,0.1,0,0.2,0l0,0c4.3,0,7.8-3.4,7.8-7.7
		c0-4.2-3.5-7.7-7.8-7.7h-7.8V128l0,0v-8.7h7.8v23c2.8,0,5.5,0.8,7.8,2.1c2.4,1.4,4.3,3.3,5.7,5.6c1.3,2.3,2.1,4.9,2.1,7.7
		s-0.8,5.4-2.1,7.7c-0.5,0.8-1.1,1.6-1.7,2.4c-1.1,1.3-2.5,2.4-4,3.3c-2.3,1.3-5,2.1-7.8,2.1H104v7.7c-0.3,0-0.6,0-0.8,0
		c0.3,0,0.6,0,0.8,0c-0.1,5-0.1,10-0.2,15.1C101.4,195.8,98.9,195.9,96.4,195.9z"/>
	<path class="st0" d="M26.6,118.8c2.8,0,5.7,0,8.5,0l0,0l22.4,0.1l0,7.5c0,0.1,0,0.1,0,0.2l0,0c0,4.2,3.5,7.7,7.8,7.7
		c4.3,0,7.8-3.4,7.8-7.7l0-7.7l22.4,0.1l0,0l8.8,0l0,7.7l-23.4-0.1c0,2.8-0.8,5.4-2.1,7.7c-1.4,2.3-3.4,4.3-5.7,5.6
		c-2.3,1.3-5,2-7.8,2c-2.8,0-5.5-0.8-7.8-2.1c-0.8-0.5-1.7-1.1-2.4-1.7c-1.3-1.1-2.4-2.5-3.3-4c-1.3-2.3-2.1-4.9-2.1-7.7v-0.2
		l-7.8,0c0-0.3,0-0.5,0-0.8c0,0.3,0,0.5,0,0.8c-5.1,0-10.2,0-15.3-0.1C26.6,123.8,26.6,121.3,26.6,118.8z"/>
	<path class="st0" d="M28.5,115.4"/>
	<path class="st0" d="M86.2,186.2"/>
	<path class="st0" d="M72.4,186.1"/>
	<path class="st0" d="M72.3,186.9"/>
</g>
<g>
	<path class="st0" d="M43,71"/>
	<path class="st0" d="M104.8,50.5c0,2.5,0,5,0,7.5c0,0,0,0,0,0l0,19.7l-7.8,0c-0.1,0-0.1,0-0.2,0l0,0c-4.4,0-8,3.1-8,6.9
		s3.6,6.9,7.9,6.9l8,0l0,19.8l0,0l0,7.7l-8,0l0-20.6c-2.9,0-5.6-0.7-8-1.8c-2.4-1.2-4.4-2.9-5.8-5c-1.3-2-2.1-4.4-2.1-6.9
		s0.8-4.8,2.1-6.9c0.5-0.8,1.1-1.5,1.7-2.1c1.2-1.2,2.5-2.2,4.1-2.9c2.3-1.2,5.1-1.8,8-1.8H97l0-6.9c0.3,0,0.6,0,0.8,0
		c-0.3,0-0.6,0-0.8,0c0.1-4.5,0.1-9,0.2-13.5C99.7,50.5,102.3,50.5,104.8,50.5z"/>
	<path class="st0" d="M25.3,50.2c2.9,0,5.8,0,8.7,0c0,0,0,0,0,0l22.9,0.1l0,6.7c0,0.1,0,0.1,0,0.2l0,0c0,3.8,3.5,6.9,7.9,6.9
		s8-3,8-6.8l0-6.9l22.9,0.1l0,0l9,0l0,6.9l-23.9-0.1c0,2.5-0.8,4.8-2.2,6.9c-1.4,2.1-3.4,3.8-5.8,5c-2.3,1.2-5.1,1.8-8,1.8
		s-5.6-0.7-8-1.9c-0.9-0.4-1.7-0.9-2.4-1.5c-1.3-1-2.5-2.2-3.4-3.5c-1.3-2-2.1-4.4-2.1-6.9V57l-7.9,0c0-0.2,0-0.5,0-0.7
		c0,0.2,0,0.5,0,0.7c-5.2,0-10.4,0-15.6,0C25.3,54.7,25.3,52.5,25.3,50.2z"/>
	<path class="st0" d="M27.3,47.2"/>
	<path class="st0" d="M86.2,110.6"/>
	<path class="st0" d="M72.1,110.5"/>
	<path class="st0" d="M72,111.2"/>
	<path class="st0" d="M33.2,55.5v63.6c-2.5,0-5,0-7.5,0c-0.1-21.2-0.2-42.4-0.3-63.7C28,55.5,30.6,55.5,33.2,55.5z"/>
</g>
<g>
	<path class="st0" d="M113.9,142.2"/>
	<path class="st0" d="M171.8,119.6c0,2.8,0,5.6,0,8.3c0,0,0,0,0,0l0,21.9l-7.3,0c-0.1,0-0.1,0-0.2,0l0,0c-4.1,0-7.5,3.4-7.5,7.6
		c0,4.2,3.3,7.6,7.4,7.6l7.4,0l0,21.9l0,0l0,8.6l-7.4,0l0-22.9c-2.7,0-5.3-0.8-7.4-2.1c-2.3-1.3-4.1-3.3-5.4-5.6
		c-1.3-2.2-2-4.9-2-7.6s0.7-5.4,2-7.6c0.5-0.8,1-1.6,1.6-2.3c1.1-1.3,2.4-2.4,3.8-3.2c2.2-1.3,4.7-2,7.4-2h0.2l0-7.6
		c0.3,0,0.5,0,0.8,0c-0.3,0-0.5,0-0.8,0c0.1-5,0.1-10,0.2-15C167,119.7,169.4,119.6,171.8,119.6z"/>
	<path class="st0" d="M171.8,119.6c0,2.8,0,5.5,0,8.3c0,0,0,0,0,0l0,21.8l-7.3,0c-0.1,0-0.1,0-0.2,0l0,0c-4.1,0-7.5,3.4-7.5,7.6
		c0,4.2,3.3,7.6,7.5,7.6l7.5,0l0,21.8l0,0l0,8.6l-7.5,0l0-22.8c-2.7,0-5.3-0.8-7.5-2c-2.3-1.3-4.2-3.3-5.5-5.6c-1.3-2.2-2-4.8-2-7.6
		s0.7-5.4,2-7.6c0.5-0.8,1-1.6,1.6-2.3c1.1-1.3,2.4-2.4,3.8-3.2c2.2-1.3,4.8-2,7.5-2h0.2l0-7.6c0.3,0,0.5,0,0.8,0
		c-0.3,0-0.5,0-0.8,0c0.1-5,0.1-9.9,0.2-14.9C167,119.7,169.4,119.6,171.8,119.6z"/>
	<path class="st0" d="M99.2,115.7"/>
	<path class="st0" d="M154.3,186.1"/>
	<path class="st0" d="M141.2,186"/>
	<path class="st0" d="M141,186.8"/>
	<path class="st0" d="M104.5,188.1l66.8-0.2l0,7.8c-22.3,0.1-44.6,0.1-66.9,0.2C104.4,193.3,104.5,190.7,104.5,188.1z"/>
	<path class="st0" d="M104.8,119.7c20,0,39.9,0,59.8-0.1c1.5,2.2,3,4.4,4.5,6.6c-22.4,0.1-44.9,0.2-67.3,0.4
		C102.8,124.3,103.8,122,104.8,119.7z"/>
	<path class="st0" d="M173,125.6"/>
	<path class="st0" d="M95.2,129.6"/>
	<path class="st0" d="M129.2,134.6"/>
	<path class="st0" d="M180.1,133.7"/>
</g>
<path class="st0" d="M214.9,116.7"/>
<path class="st0" d="M105.1,197.2"/>
<rect x="219.8" y="13.4" class="st1" width="773.8" height="245.3"/>
<text transform="matrix(1.1489 0 0 1 219.7847 90.394)" class="st0 st2 st3">Po</text>
<text transform="matrix(1.1489 0 0 1 384.5981 90.394)" class="st0 st2 st3 st4">r</text>
<text transform="matrix(1.1489 0 0 1 467.0601 90.394)" class="st0 st2 st3 st5">t</text>
<text transform="matrix(1.1489 0 0 1 525.6963 90.394)" class="st0 st2 st3">u</text>
<text transform="matrix(1.1489 0 0 1 613.8848 90.394)" class="st0 st2 st3 st5">c</text>
<text transform="matrix(1.1489 0 0 1 690.5098 90.394)" class="st0 st2 st3 st6">an</text>
<text transform="matrix(1.1489 0 0 1 873.0781 90.394)" class="st0 st2 st3">a</text>
<text transform="matrix(1.1489 0 0 1 219.7847 142.252)" class="st0 st2 st3 st7"> </text>
<rect x="220.6" y="121.6" class="st1" width="1422.6" height="112.8"/>
<text transform="matrix(1.1118 0 0 1 220.6118 160.8335)" class="st0 st2 st8">Con</text>
<text transform="matrix(1.1118 0 0 1 351.0484 160.8335)" class="st0 st2 st8 st9">s</text>
<text transform="matrix(1.1118 0 0 1 385.959 160.8335)" class="st0 st2 st8 st10">t</text>
<text transform="matrix(1.1118 0 0 1 415.2769 160.8335)" class="st0 st2 st8">ruction</text>
<text transform="matrix(1.1118 0 0 1 661.541 160.8335)" class="st0 st2 st8 st11"> </text>
<text transform="matrix(1.1118 0 0 1 672.5693 160.8335)" class="st0 st2 st8">Services</text>
<rect x="223.9" y="176.5" class="st1" width="1422.6" height="112.8"/>
<text transform="matrix(1.1118 0 0 1 400.2642 192.5122)" class="st0 st2 st12"> </text>
<text transform="matrix(1.1118 0 0 1 421.5996 192.5122)" class="st0 st2 st12"> </text>
<text transform="matrix(1.1118 0 0 1 644.6152 192.5122)" class="st0 st2 st12"> </text>
<text transform="matrix(1.1118 0 0 1 756.5947 192.5122)" class="st0 st2 st12 st13"> </text>
<rect x="221.4" y="174.1" class="st1" width="189.2" height="22.2"/>
<text transform="matrix(1 0 0 1 221.3723 192.6214)" class="st0 st2 st14">Renovations</text>
<rect x="432.8" y="175.3" class="st1" width="195.5" height="22.2"/>
<text transform="matrix(1 0 0 1 432.8283 193.7604)" class="st0 st2 st14">New Buldings</text>
<rect x="669.9" y="173.1" class="st1" width="332" height="22.2"/>
<text transform="matrix(1 0 0 1 669.9198 191.6214)" class="st0 st2 st14">Project Management</text>
<rect x="403.4" y="175.1" class="st1" width="14.3" height="22.2"/>
<text transform="matrix(1 0 0 1 403.3814 193.6214)" class="st0 st2 st14">-</text>
<rect x="640.4" y="174.7" class="st1" width="14.3" height="22.2"/>
<text transform="matrix(1 0 0 1 640.3927 193.203)" class="st0 st2 st14">-</text>
</svg>
